<?xml version="1.0" encoding="utf-8"?>
<!-- Generator: Adobe Illustrator 16.0.0, SVG Export Plug-In . SVG Version: 6.00 Build 0)  -->
<!DOCTYPE svg PUBLIC "-//W3C//DTD SVG 1.1//EN" "http://www.w3.org/Graphics/SVG/1.1/DTD/svg11.dtd">
<svg version="1.1" id="Layer_1" xmlns="http://www.w3.org/2000/svg" xmlns:xlink="http://www.w3.org/1999/xlink" x="0px" y="0px"
	 width="546.832px" height="445.49px" viewBox="0 0 546.832 445.49" enable-background="new 0 0 546.832 445.49"
	 xml:space="preserve">
<g>
	<g>
		<path fill="#1C47C1" d="M114.048,113.901c-9.839-19.654-18.957-40.763-23.352-55.455c-5.739-19.193-6.653-33.844-2.722-43.547
			c0.261-0.643,0.993-0.954,1.638-0.693c0.644,0.261,0.953,0.995,0.691,1.637c-6.875,16.962,2.333,50.906,26.625,98.233
			L114.048,113.901z"/>
	</g>
	<path fill="#0172D0" d="M87.008,40.911c0,0-9.694,4.048-16.145-13.274C70.864,27.637,87.46,25.646,87.008,40.911z"/>
	<path fill="#0172D0" d="M89.873,50.014c0,0-4.583-9.455,12.354-16.86C102.228,33.154,105.136,49.613,89.873,50.014z"/>
	<path fill="#0172D0" d="M87.26,23.014c0,0-7.472-7.387,6.025-20.014C93.285,3.001,101.517,17.549,87.26,23.014z"/>
	<path fill="#0172D0" d="M95.069,68.505c0,0-7.753,7.087-19.682-7.032C75.387,61.473,90.332,53.987,95.069,68.505z"/>
	<path fill="#0172D0" d="M99.392,77.334c0,0-6.146-8.52,9.253-18.741C108.645,58.593,114.357,74.302,99.392,77.334z"/>
	<path fill="#0172D0" d="M104.108,90.015c0,0-7.619,7.235-19.813-6.656C84.295,83.359,99.094,75.592,104.108,90.015z"/>
</g>
<g>
	<g>
		<g>
			<path opacity="0.6" fill="#D1E3F1" enable-background="new    " d="M416.766,265.437c0,0.008-0.004,0.014-0.004,0.021
				c-3.043,18.422-9.012,35.479-17.286,50.592c-22.853,41.761-63.286,68.693-108.228,68.693h-86.275
				c-35.034,0-68.464-16.574-92.547-45.71c-1.039-1.254-2.06-2.534-3.063-3.834c-13.419-17.432-23.101-38.146-28.267-60.453
				c-1.721-7.436-2.942-15.044-3.633-22.768c-0.016-0.186-0.032-0.361-0.047-0.55c-1.233-14.021-1.578-27.519-0.956-40.264
				c1.389-28.37,7.591-53.007,19.589-71.379c13.961-21.379,35.772-34.266,66.981-34.662c1.298-0.016,2.603-0.016,3.924,0.008
				c85.993,1.495,83.132,46.712,153.563,66.554c16.097,4.536,36.021,7.748,61.72,8.804c0.576,0.023,1.146,0.055,1.709,0.103
				C420.024,183.255,423.9,222.235,416.766,265.437z"/>
			<path opacity="0.3" fill="#FFFFFF" enable-background="new    " d="M383.943,180.593
				c-24.371,14.671-62.438,30.377-108.292,24.651c-69.592-8.688-157.195-25.499-199.191,5.921
				c1.39-28.37,7.591-53.007,19.589-71.379c14.7-3.934,33.392-4.097,57.001,2.935c51.156,15.233,117.577,31.872,167.466,28.965
				c16.098,4.536,36.021,7.748,61.72,8.803C382.812,180.515,383.379,180.546,383.943,180.593z"/>
			<path opacity="0.3" fill="#FFFFFF" enable-background="new    " d="M416.762,265.456c-3.043,18.422-9.012,35.479-17.286,50.593
				c-17.616,6.112-41.056,8.36-71.414,0.718c-74.173-18.686-155.526-18.351-215.638,22.268c-1.039-1.256-2.06-2.537-3.063-3.838
				c-13.419-17.43-23.102-38.145-28.268-60.453c21.006-11.475,73.614-33.76,141.428-15.916
				C294.041,277.649,376.021,292.61,416.762,265.456z"/>
		</g>
	</g>
</g>
<ellipse opacity="0.6" fill="#D1E3F1" enable-background="new    " cx="272.794" cy="420.908" rx="270.797" ry="20.139"/>
<g>
	<g>
		<path fill="#1C47C1" d="M321.829,389.122c14.756-17.543,29.134-36.739,37.156-50.572c10.484-18.072,14.974-32.709,13.338-43.507
			c-0.107-0.72-0.775-1.211-1.491-1.101c-0.717,0.105-1.21,0.773-1.101,1.489c2.854,18.876-14.731,51.067-50.872,93.163
			L321.829,389.122z"/>
	</g>
	<path fill="#0172D0" d="M366.989,321.659c0,0,8.852,6.465,19.603-9.54C386.59,312.118,370.24,306.071,366.989,321.659z"/>
	<path fill="#0172D0" d="M361.871,330.198c0,0,6.943-8.478-8.437-20.103C353.437,310.094,346.489,326.084,361.871,330.198z"/>
	<path fill="#0172D0" d="M371.081,303.448c0,0,9.372-5.676-1.249-21.764C369.832,281.685,357.948,294.442,371.081,303.448z"/>
	<path fill="#0172D0" d="M352.109,347.69c0,0,6.145,9.07,21.672-2.352C373.781,345.339,360.443,334.118,352.109,347.69z"/>
	<path fill="#0172D0" d="M345.576,355.594c0,0,8.306-7.146-4.829-21.256C340.747,334.339,331.14,348.884,345.576,355.594z"/>
	<path fill="#0172D0" d="M337.714,367.31c0,0,5.97,9.189,21.713-1.937C359.429,365.373,346.305,353.901,337.714,367.31z"/>
</g>
<g>
	<g>
		<g>
			<path fill="#0172D0" d="M20.794,297.069c-3.316,0-6.011-2.692-6.011-6.01c0-3.313,2.693-6.011,6.011-6.011
				c3.314,0,6.009,2.695,6.009,6.011C26.802,294.377,24.109,297.069,20.794,297.069z M20.794,286.937
				c-2.276,0-4.125,1.852-4.125,4.123c0,2.275,1.849,4.127,4.125,4.127c2.274,0,4.125-1.852,4.125-4.127
				C24.92,288.787,23.069,286.937,20.794,286.937z"/>
		</g>
		<g>
			<path fill="#FFAC00" d="M42.432,318.157c-3.314,0-6.01-2.695-6.01-6.012c0-3.313,2.695-6.011,6.01-6.011s6.01,2.696,6.01,6.011
				C48.44,315.462,45.746,318.157,42.432,318.157z M42.432,308.022c-2.276,0-4.125,1.853-4.125,4.123
				c0,2.276,1.849,4.125,4.125,4.125c2.274,0,4.123-1.849,4.123-4.125C46.555,309.874,44.706,308.022,42.432,308.022z"/>
		</g>
		<g>
			<g>
				<g>
					<path fill="#0172D0" d="M49.857,337.692c-0.519,0-0.941-0.424-0.941-0.943v-4.159c0-0.519,0.423-0.94,0.941-0.94
						c0.521,0,0.944,0.422,0.944,0.94v4.159C50.801,337.267,50.38,337.692,49.857,337.692z"/>
				</g>
				<g>
					<path fill="#0172D0" d="M49.857,344.966c-0.519,0-0.941-0.424-0.941-0.941v-4.158c0-0.521,0.423-0.944,0.941-0.944
						c0.521,0,0.944,0.423,0.944,0.944v4.158C50.801,344.545,50.38,344.966,49.857,344.966z"/>
				</g>
			</g>
			<g>
				<g>
					<path fill="#0172D0" d="M55.695,339.25h-3.732c-0.523,0-0.945-0.422-0.945-0.942s0.422-0.943,0.945-0.943h3.732
						c0.521,0,0.943,0.423,0.943,0.943S56.217,339.25,55.695,339.25z"/>
				</g>
				<g>
					<path fill="#0172D0" d="M47.758,339.25h-3.735c-0.52,0-0.942-0.422-0.942-0.942s0.423-0.943,0.942-0.943h3.735
						c0.52,0,0.942,0.423,0.942,0.943S48.278,339.25,47.758,339.25z"/>
				</g>
			</g>
		</g>
		<g>
			<g>
				<g>
					<g>
						<g>
							<path fill="#FFAC00" d="M16.67,314.392c-0.521,0-0.942-0.421-0.942-0.939v-4.157c0-0.522,0.422-0.947,0.942-0.947
								s0.941,0.423,0.941,0.947v4.157C17.613,313.971,17.191,314.392,16.67,314.392z"/>
						</g>
					</g>
					<g>
						<g>
							<path fill="#FFAC00" d="M16.67,321.67c-0.521,0-0.942-0.424-0.942-0.942v-4.158c0-0.521,0.422-0.943,0.942-0.943
								s0.941,0.422,0.941,0.943v4.158C17.613,321.246,17.191,321.67,16.67,321.67z"/>
						</g>
					</g>
				</g>
				<g>
					<g>
						<g>
							<path fill="#FFAC00" d="M22.507,315.952h-3.736c-0.521,0-0.943-0.422-0.943-0.943s0.422-0.943,0.943-0.943h3.736
								c0.519,0,0.942,0.422,0.942,0.943S23.026,315.952,22.507,315.952z"/>
						</g>
					</g>
					<g>
						<g>
							<path fill="#FFAC00" d="M14.569,315.952h-3.734c-0.521,0-0.943-0.422-0.943-0.943s0.422-0.943,0.943-0.943h3.734
								c0.519,0,0.941,0.422,0.941,0.943C15.511,315.53,15.088,315.952,14.569,315.952z"/>
						</g>
					</g>
				</g>
			</g>
		</g>
	</g>
	<g>
		<g>
			<g>
				<g>
					<g>
						<g>
							<path fill="#0172D0" d="M181.816,58.539c-3.313,0-6.01-2.696-6.01-6.011c0-3.313,2.695-6.01,6.01-6.01
								c3.316,0,6.013,2.696,6.013,6.01C187.826,55.843,185.131,58.539,181.816,58.539z M181.816,56.652
								c2.274,0,4.125-1.849,4.125-4.126c0-2.273-1.851-4.125-4.125-4.125c-2.272,0-4.125,1.852-4.125,4.125
								C177.69,54.803,179.542,56.652,181.816,56.652z"/>
						</g>
					</g>
				</g>
			</g>
			<g>
				<g>
					<g>
						<g>
							<path fill="#FFAC00" d="M196.138,83.209c-3.315,0-6.012-2.696-6.012-6.009c0-3.315,2.695-6.012,6.012-6.012
								c3.313,0,6.009,2.695,6.009,6.012C202.147,80.512,199.451,83.209,196.138,83.209z M196.138,81.325
								c2.273,0,4.125-1.852,4.125-4.125c0-2.276-1.852-4.126-4.125-4.126c-2.276,0-4.126,1.849-4.126,4.126
								C192.012,79.474,193.862,81.325,196.138,81.325z"/>
						</g>
					</g>
				</g>
			</g>
			<g>
				<g>
					<g>
						<path fill="#0172D0" d="M221.304,87.466c0-0.521-0.423-0.942-0.943-0.942h-4.158c-0.521,0-0.94,0.422-0.94,0.942
							c0,0.522,0.422,0.943,0.94,0.943h4.158C220.882,88.411,221.304,87.988,221.304,87.466z"/>
					</g>
					<g>
						<path fill="#0172D0" d="M228.579,87.466c0-0.521-0.422-0.942-0.942-0.942h-4.157c-0.521,0-0.942,0.422-0.942,0.942
							c0,0.522,0.423,0.943,0.942,0.943h4.157C228.157,88.411,228.579,87.988,228.579,87.466z"/>
					</g>
				</g>
				<g>
					<g>
						<path fill="#0172D0" d="M222.862,93.303v-3.734c0-0.521-0.421-0.942-0.94-0.942c-0.521,0-0.942,0.422-0.942,0.942v3.734
							c0,0.521,0.421,0.944,0.942,0.944C222.441,94.246,222.862,93.823,222.862,93.303z"/>
					</g>
					<g>
						<path fill="#0172D0" d="M222.862,85.365v-3.737c0-0.518-0.421-0.94-0.94-0.94c-0.521,0-0.942,0.423-0.942,0.94v3.737
							c0,0.52,0.421,0.942,0.942,0.942C222.441,86.308,222.862,85.887,222.862,85.365z"/>
					</g>
				</g>
			</g>
			<g>
				<g>
					<g>
						<g>
							<g>
								<path fill="#FFAC00" d="M164.824,71.189c0-0.52-0.425-0.944-0.944-0.944h-4.159c-0.521,0-0.943,0.423-0.943,0.944
									s0.423,0.942,0.943,0.942h4.159C164.401,72.13,164.824,71.71,164.824,71.189z"/>
							</g>
						</g>
						<g>
							<g>
								<g>
									<path fill="#FFAC00" d="M172.099,71.189c0-0.52-0.422-0.944-0.941-0.944h-4.16c-0.521,0-0.942,0.423-0.942,0.944
										s0.423,0.942,0.942,0.942h4.16C171.679,72.13,172.099,71.71,172.099,71.189z"/>
								</g>
							</g>
						</g>
					</g>
					<g>
						<g>
							<g>
								<path fill="#FFAC00" d="M166.383,77.024v-3.736c0-0.519-0.424-0.941-0.944-0.941c-0.52,0-0.941,0.423-0.941,0.941v3.736
									c0,0.521,0.422,0.943,0.941,0.943C165.96,77.968,166.383,77.546,166.383,77.024z"/>
							</g>
						</g>
						<g>
							<g>
								<path fill="#FFAC00" d="M166.383,69.089v-3.737c0-0.521-0.424-0.943-0.944-0.943c-0.52,0-0.941,0.422-0.941,0.943v3.737
									c0,0.52,0.422,0.941,0.941,0.941C165.959,70.03,166.383,69.607,166.383,69.089z"/>
							</g>
						</g>
					</g>
				</g>
			</g>
		</g>
	</g>
</g>
<g>
	<g>
		<path fill="none" stroke="#747BFD" stroke-miterlimit="10" stroke-dasharray="5,5" d="M412.511,357.319
			c63.249-24.535,84.631-105.061,59.14-163.942c-8.464-19.554-22.031-37.028-36.749-52.253c-6.582-6.812-13.454-13.44-18.791-21.267
			c-6.001-8.799-8.15-17.781-9.04-28.208c-0.773-9.115-0.926-19.899-9.431-25.529c-19.002-12.577-33.568,15.392-43.612,25.992
			c-8.736,9.223-21.386,14.28-34.076,14.925c-12.688,0.643-25.375-2.9-36.595-8.866c-7.857-4.182-15.694-9.715-24.598-9.506
			c-23.201,0.545-32.734,27.103-38.102,45.833c-5.242,18.292-10.906,40.683-29.021,50.539c-11.996,6.53-26.452,5.592-40.11,5.801
			c-23.546,0.358-49.012,5.581-65.911,23.201c-17.738,18.493-24.888,45.962-16.997,70.526c8.949,27.867,44.887,63.688,76.306,59.719
			"/>
		<path fill="#0172D0" d="M233.289,208.858H147.5c-9.479,0-17.232-7.756-17.232-17.232v-38.243c0-9.478,7.754-17.233,17.232-17.233
			h85.789c9.478,0,17.231,7.756,17.231,17.233v38.243C250.522,201.103,242.767,208.858,233.289,208.858z"/>
		<polygon fill="#0172D0" points="236.898,208.858 271.855,208.858 250.522,184.785 		"/>
		<path fill="#FFFFFF" d="M233.035,158.59h-85.281c-2.107,0-3.832-1.724-3.832-3.832l0,0c0-2.106,1.725-3.831,3.832-3.831h85.281
			c2.106,0,3.832,1.725,3.832,3.831l0,0C236.867,156.867,235.143,158.59,233.035,158.59z"/>
		<path fill="#FFFFFF" d="M233.035,176.335h-85.281c-2.107,0-3.832-1.724-3.832-3.833l0,0c0-2.106,1.725-3.831,3.832-3.831h85.281
			c2.106,0,3.832,1.725,3.832,3.831l0,0C236.867,174.611,235.143,176.335,233.035,176.335z"/>
		<path fill="#FFFFFF" d="M186.563,194.079h-38.809c-2.107,0-3.832-1.725-3.832-3.832l0,0c0-2.107,1.725-3.833,3.832-3.833h38.809
			c2.106,0,3.832,1.726,3.832,3.833l0,0C190.395,192.354,188.67,194.079,186.563,194.079z"/>
		<path fill="#0172D0" d="M343.531,122.036h-55.354c-1.587,0-2.873-1.287-2.873-2.872V84.142c0-1.586,1.286-2.872,2.873-2.872
			h55.354c1.587,0,2.873,1.286,2.873,2.872v35.022C346.404,120.749,345.116,122.036,343.531,122.036z"/>
		<path fill="none" stroke="#FFFFFF" stroke-miterlimit="10" d="M286.29,82.578l26.751,25.938c1.531,1.484,4.093,1.484,5.623,0
			l26.75-25.938"/>
		<line fill="none" stroke="#FFFFFF" stroke-miterlimit="10" x1="286.29" y1="120.72" x2="308.24" y2="103.861"/>
		<line fill="none" stroke="#FFFFFF" stroke-miterlimit="10" x1="345.414" y1="120.72" x2="323.467" y2="103.861"/>
		<path fill="#BCBEF9" d="M485.273,64.535h-31.193c-1.587,0-2.872-1.286-2.872-2.872V42.762c0-1.586,1.285-2.872,2.872-2.872h31.193
			c1.586,0,2.871,1.286,2.871,2.872v18.901C488.144,63.249,486.859,64.535,485.273,64.535z"/>
		<path fill="none" stroke="#FFFFFF" stroke-miterlimit="10" d="M451.804,40.681l16.171,15.682c0.928,0.897,2.476,0.897,3.4,0
			l16.174-15.682"/>
		<line fill="none" stroke="#FFFFFF" stroke-miterlimit="10" x1="451.804" y1="63.741" x2="465.073" y2="53.548"/>
		<line fill="none" stroke="#FFFFFF" stroke-miterlimit="10" x1="487.549" y1="63.741" x2="474.279" y2="53.548"/>
		<path fill="#BCBEF9" d="M164.039,248.998h-31.194c-1.585,0-2.873-1.286-2.873-2.873v-18.901c0-1.586,1.287-2.871,2.873-2.871
			h31.194c1.586,0,2.873,1.285,2.873,2.871v18.901C166.912,247.712,165.625,248.998,164.039,248.998z"/>
		<path fill="none" stroke="#FFFFFF" stroke-miterlimit="10" d="M130.571,225.146l16.173,15.682c0.926,0.896,2.474,0.896,3.399,0
			l16.172-15.682"/>
		<line fill="none" stroke="#FFFFFF" stroke-miterlimit="10" x1="130.571" y1="248.205" x2="143.841" y2="238.011"/>
		<line fill="none" stroke="#FFFFFF" stroke-miterlimit="10" x1="166.315" y1="248.205" x2="153.045" y2="238.011"/>
		<circle fill="#0172D0" cx="419.709" cy="114.466" r="28.116"/>
		<path fill="#FFFFFF" d="M413.513,112.2l1.021-1.131c0.845-0.931,1.271-2.134,1.208-3.39c-0.062-1.255-0.607-2.409-1.541-3.252
			l-1.725-1.56c-0.867-0.785-1.985-1.216-3.154-1.216c-1.328,0-2.6,0.564-3.487,1.547l-1.023,1.133
			c-0.13,0.143-0.256,0.303-0.376,0.474l-0.047,0.052c-0.966,0.827-1.786,2.834-1.311,5.294
			c2.197,11.446,11.84,20.166,23.446,21.206c1.525,0.14,2.958-0.176,4.043-0.843c0.437-0.25,0.819-0.561,1.146-0.925l1.024-1.132
			c1.737-1.922,1.589-4.901-0.334-6.64l-1.726-1.563c-0.865-0.783-1.985-1.215-3.152-1.215c-1.328,0-2.6,0.565-3.488,1.549
			l-1.024,1.129c-0.437,0.484-0.761,1.039-0.968,1.655l-0.092,0.272l-0.271-0.106c-4.563-1.801-8.28-5.213-10.468-9.606
			l-0.146-0.292l0.313-0.093C412.202,113.302,412.938,112.837,413.513,112.2z"/>
		<path fill="#FFFFFF" d="M419.254,98.636c0,0.606,0.49,1.097,1.097,1.097c7.683,0,13.935,6.25,13.935,13.935
			c0,0.604,0.491,1.095,1.097,1.095c0.604,0,1.097-0.491,1.097-1.095c0-8.894-7.236-16.128-16.127-16.128
			C419.744,97.539,419.254,98.03,419.254,98.636z"/>
		<path fill="#FFFFFF" d="M419.076,103.999c0,0.606,0.49,1.097,1.098,1.097c4.823,0,8.748,3.924,8.748,8.749
			c0,0.605,0.489,1.096,1.094,1.096c0.605,0,1.097-0.491,1.097-1.096c0-6.033-4.907-10.939-10.938-10.939
			C419.568,102.905,419.076,103.394,419.076,103.999z"/>
		<circle fill="#BCBEF9" cx="253.724" cy="254.814" r="18.136"/>
		<path fill="#FFFFFF" d="M249.728,253.351l0.659-0.729c0.544-0.6,0.822-1.376,0.779-2.186c-0.039-0.811-0.393-1.557-0.992-2.099
			l-1.114-1.008c-0.559-0.505-1.281-0.783-2.033-0.783c-0.855,0-1.676,0.363-2.251,0.999l-0.659,0.729
			c-0.086,0.096-0.166,0.197-0.24,0.309l-0.032,0.033c-0.623,0.531-1.152,1.828-0.846,3.414c1.417,7.385,7.637,13.01,15.126,13.68
			c0.98,0.09,1.906-0.111,2.607-0.544c0.28-0.162,0.526-0.362,0.739-0.597l0.659-0.73c1.121-1.24,1.027-3.163-0.214-4.284
			l-1.113-1.007c-0.56-0.504-1.28-0.784-2.035-0.784c-0.854,0-1.675,0.365-2.25,0.999l-0.658,0.73
			c-0.281,0.312-0.492,0.669-0.626,1.064l-0.06,0.178l-0.173-0.068c-2.942-1.16-5.341-3.362-6.754-6.198l-0.094-0.187l0.201-0.062
			C248.885,254.063,249.358,253.762,249.728,253.351z"/>
		<path fill="#FFFFFF" d="M253.433,244.601c0,0.393,0.314,0.709,0.707,0.709c4.955,0,8.988,4.03,8.988,8.987
			c0,0.39,0.314,0.706,0.708,0.706c0.39,0,0.705-0.316,0.705-0.706c0-5.735-4.665-10.403-10.401-10.403
			C253.747,243.894,253.433,244.21,253.433,244.601z"/>
		<path fill="#FFFFFF" d="M253.318,248.062c0,0.391,0.317,0.709,0.707,0.709c3.113,0,5.645,2.529,5.645,5.641
			c0,0.391,0.316,0.708,0.706,0.708c0.391,0,0.708-0.317,0.708-0.708c0-3.891-3.166-7.057-7.059-7.057
			C253.635,247.354,253.318,247.67,253.318,248.062z"/>
		<circle fill="#BCBEF9" cx="433.951" cy="191.028" r="16.835"/>
		<path fill="#FFFFFF" d="M430.242,189.672l0.611-0.677c0.505-0.559,0.763-1.278,0.725-2.03c-0.036-0.751-0.364-1.442-0.924-1.946
			l-1.032-0.936c-0.519-0.468-1.188-0.726-1.888-0.726c-0.798,0-1.557,0.336-2.089,0.925l-0.613,0.679
			c-0.077,0.085-0.152,0.18-0.226,0.283l-0.029,0.03c-0.576,0.494-1.067,1.697-0.783,3.17c1.316,6.854,7.091,12.074,14.04,12.699
			c0.912,0.082,1.771-0.105,2.42-0.506c0.263-0.15,0.491-0.336,0.688-0.556l0.613-0.677c1.041-1.152,0.951-2.937-0.201-3.978
			l-1.032-0.935c-0.519-0.469-1.188-0.727-1.887-0.727c-0.796,0-1.559,0.338-2.09,0.926l-0.613,0.677
			c-0.26,0.29-0.456,0.622-0.578,0.989l-0.058,0.164l-0.159-0.063c-2.731-1.077-4.959-3.122-6.271-5.752l-0.086-0.175l0.187-0.055
			C429.456,190.333,429.899,190.051,430.242,189.672z"/>
		<path fill="#FFFFFF" d="M433.681,181.55c0,0.363,0.293,0.657,0.656,0.657c4.602,0,8.344,3.741,8.344,8.343
			c0,0.361,0.293,0.655,0.655,0.655c0.361,0,0.656-0.294,0.656-0.655c0-5.326-4.331-9.656-9.655-9.656
			C433.974,180.894,433.681,181.189,433.681,181.55z"/>
		<path fill="#FFFFFF" d="M433.575,184.761c0,0.363,0.293,0.657,0.655,0.657c2.891,0,5.237,2.348,5.237,5.235
			c0,0.365,0.295,0.658,0.655,0.658c0.361,0,0.656-0.293,0.656-0.658c0-3.61-2.938-6.548-6.55-6.548
			C433.868,184.106,433.575,184.397,433.575,184.761z"/>
		<circle fill="#BCBEF9" cx="307.864" cy="36.61" r="15.603"/>
		<path fill="#FFFFFF" d="M304.425,35.353l0.567-0.628c0.469-0.517,0.704-1.185,0.671-1.882c-0.034-0.696-0.34-1.337-0.854-1.804
			l-0.96-0.866c-0.479-0.435-1.103-0.674-1.748-0.674c-0.736,0-1.443,0.313-1.938,0.859l-0.566,0.628
			c-0.073,0.08-0.144,0.167-0.208,0.264l-0.027,0.029c-0.535,0.458-0.99,1.573-0.726,2.938c1.218,6.352,6.567,11.191,13.012,11.769
			c0.844,0.077,1.64-0.098,2.243-0.468c0.241-0.14,0.454-0.312,0.637-0.515l0.568-0.627c0.965-1.067,0.882-2.721-0.185-3.686
			l-0.961-0.866c-0.479-0.435-1.101-0.674-1.749-0.674c-0.735,0-1.441,0.314-1.936,0.859l-0.567,0.627
			c-0.243,0.269-0.423,0.577-0.538,0.918l-0.049,0.152l-0.149-0.059c-2.532-1-4.598-2.894-5.813-5.333l-0.08-0.161l0.174-0.052
			C303.698,35.964,304.106,35.705,304.425,35.353z"/>
		<path fill="#FFFFFF" d="M307.61,27.824c0,0.336,0.273,0.608,0.61,0.608c4.264,0,7.73,3.469,7.73,7.733
			c0,0.335,0.273,0.608,0.609,0.608c0.337,0,0.609-0.273,0.609-0.608c0-4.935-4.017-8.95-8.95-8.95
			C307.883,27.216,307.61,27.488,307.61,27.824z"/>
		<path fill="#FFFFFF" d="M307.513,30.801c0,0.335,0.271,0.608,0.608,0.608c2.677,0,4.854,2.178,4.854,4.854
			c0,0.336,0.272,0.608,0.609,0.608c0.335,0,0.608-0.271,0.608-0.608c0-3.347-2.725-6.07-6.072-6.07
			C307.784,30.193,307.513,30.465,307.513,30.801z"/>
		<g>
			<g>
				<path id="SVGID_1_" fill="#BCBEF9" d="M450.507,214.29c5.763-4.852,12.7-8.166,20.474-8.915
					c3.768-0.363,7.895,0.075,10.724,2.593c7.438,6.624,6.671,22.385,6.541,31.587c-0.311,22.138-5.925,43.97-14.739,64.196
					c-4.361,10.007-9.521,19.663-15.329,28.904c-2.669,4.248-5.504,8.389-8.068,12.697c-1.077,1.81-8.286,13.014-6.918,14.813
					c-6.284-8.272-9.789-18.386-11.563-28.62c-2.625-15.141-5.473-30.741-4.689-46.374c0.803-16.071,3.166-32.172,8.135-47.509
					C437.933,228.819,443.299,220.356,450.507,214.29z"/>
			</g>
			<g>
				<defs>
					<path id="SVGID_2_" d="M450.507,214.29c5.763-4.852,12.7-8.166,20.474-8.915c3.768-0.363,7.895,0.075,10.724,2.593
						c7.438,6.624,6.671,22.385,6.541,31.587c-0.311,22.138-5.925,43.97-14.739,64.196c-4.361,10.007-9.521,19.663-15.329,28.904
						c-2.669,4.248-5.504,8.389-8.068,12.697c-1.077,1.81-8.286,13.014-6.918,14.813c-6.284-8.272-9.789-18.386-11.563-28.62
						c-2.625-15.141-5.473-30.741-4.689-46.374c0.803-16.071,3.166-32.172,8.135-47.509
						C437.933,228.819,443.299,220.356,450.507,214.29z"/>
				</defs>
				<clipPath id="SVGID_4_">
					<use xlink:href="#SVGID_2_"  overflow="visible"/>
				</clipPath>
				<path clip-path="url(#SVGID_4_)" fill="none" stroke="#747BFD" stroke-miterlimit="10" d="M442.462,368.094
					c-2.127-26.692,0.211-53.563,5.333-79.799c4.891-25.024,11.246-50.127,20.777-73.813c3.15-7.828,6.678-15.506,10.679-22.934"/>
			</g>
			<g>
				<defs>
					<path id="SVGID_6_" d="M450.507,214.29c5.763-4.852,12.7-8.166,20.474-8.915c3.768-0.363,7.895,0.075,10.724,2.593
						c7.438,6.624,6.671,22.385,6.541,31.587c-0.311,22.138-5.925,43.97-14.739,64.196c-4.361,10.007-9.521,19.663-15.329,28.904
						c-2.669,4.248-5.504,8.389-8.068,12.697c-1.077,1.81-8.286,13.014-6.918,14.813c-6.284-8.272-9.789-18.386-11.563-28.62
						c-2.625-15.141-5.473-30.741-4.689-46.374c0.803-16.071,3.166-32.172,8.135-47.509
						C437.933,228.819,443.299,220.356,450.507,214.29z"/>
				</defs>
				<clipPath id="SVGID_7_">
					<use xlink:href="#SVGID_6_"  overflow="visible"/>
				</clipPath>
				<path clip-path="url(#SVGID_7_)" fill="none" stroke="#747BFD" stroke-miterlimit="10" d="M500.041,227.474
					c-13.164,4.536-25.733,10.792-37.291,18.559c-2.934,1.972-4.562,2.567-7.014,5.111"/>
			</g>
			<g>
				<defs>
					<path id="SVGID_8_" d="M450.507,214.29c5.763-4.852,12.7-8.166,20.474-8.915c3.768-0.363,7.895,0.075,10.724,2.593
						c7.438,6.624,6.671,22.385,6.541,31.587c-0.311,22.138-5.925,43.97-14.739,64.196c-4.361,10.007-9.521,19.663-15.329,28.904
						c-2.669,4.248-5.504,8.389-8.068,12.697c-1.077,1.81-8.286,13.014-6.918,14.813c-6.284-8.272-9.789-18.386-11.563-28.62
						c-2.625-15.141-5.473-30.741-4.689-46.374c0.803-16.071,3.166-32.172,8.135-47.509
						C437.933,228.819,443.299,220.356,450.507,214.29z"/>
				</defs>
				<clipPath id="SVGID_9_">
					<use xlink:href="#SVGID_8_"  overflow="visible"/>
				</clipPath>
				<path clip-path="url(#SVGID_9_)" fill="none" stroke="#747BFD" stroke-miterlimit="10" d="M449.3,279.676
					c12.662-8.051,26.993-13.459,41.817-15.785"/>
			</g>
			<g>
				<defs>
					<path id="SVGID_10_" d="M450.507,214.29c5.763-4.852,12.7-8.166,20.474-8.915c3.768-0.363,7.895,0.075,10.724,2.593
						c7.438,6.624,6.671,22.385,6.541,31.587c-0.311,22.138-5.925,43.97-14.739,64.196c-4.361,10.007-9.521,19.663-15.329,28.904
						c-2.669,4.248-5.504,8.389-8.068,12.697c-1.077,1.81-8.286,13.014-6.918,14.813c-6.284-8.272-9.789-18.386-11.563-28.62
						c-2.625-15.141-5.473-30.741-4.689-46.374c0.803-16.071,3.166-32.172,8.135-47.509
						C437.933,228.819,443.299,220.356,450.507,214.29z"/>
				</defs>
				<clipPath id="SVGID_11_">
					<use xlink:href="#SVGID_10_"  overflow="visible"/>
				</clipPath>
				<path clip-path="url(#SVGID_11_)" fill="none" stroke="#747BFD" stroke-miterlimit="10" d="M444.058,314.051
					c11.804-10.077,26.154-17.146,41.336-20.364"/>
			</g>
			<g>
				<defs>
					<path id="SVGID_12_" d="M450.507,214.29c5.763-4.852,12.7-8.166,20.474-8.915c3.768-0.363,7.895,0.075,10.724,2.593
						c7.438,6.624,6.671,22.385,6.541,31.587c-0.311,22.138-5.925,43.97-14.739,64.196c-4.361,10.007-9.521,19.663-15.329,28.904
						c-2.669,4.248-5.504,8.389-8.068,12.697c-1.077,1.81-8.286,13.014-6.918,14.813c-6.284-8.272-9.789-18.386-11.563-28.62
						c-2.625-15.141-5.473-30.741-4.689-46.374c0.803-16.071,3.166-32.172,8.135-47.509
						C437.933,228.819,443.299,220.356,450.507,214.29z"/>
				</defs>
				<clipPath id="SVGID_13_">
					<use xlink:href="#SVGID_12_"  overflow="visible"/>
				</clipPath>
				<path clip-path="url(#SVGID_13_)" fill="none" stroke="#747BFD" stroke-miterlimit="10" d="M456.396,250.271
					c-0.812-14.119-4.219-28.089-10.001-40.994"/>
			</g>
			<g>
				<defs>
					<path id="SVGID_14_" d="M450.507,214.29c5.763-4.852,12.7-8.166,20.474-8.915c3.768-0.363,7.895,0.075,10.724,2.593
						c7.438,6.624,6.671,22.385,6.541,31.587c-0.311,22.138-5.925,43.97-14.739,64.196c-4.361,10.007-9.521,19.663-15.329,28.904
						c-2.669,4.248-5.504,8.389-8.068,12.697c-1.077,1.81-8.286,13.014-6.918,14.813c-6.284-8.272-9.789-18.386-11.563-28.62
						c-2.625-15.141-5.473-30.741-4.689-46.374c0.803-16.071,3.166-32.172,8.135-47.509
						C437.933,228.819,443.299,220.356,450.507,214.29z"/>
				</defs>
				<clipPath id="SVGID_15_">
					<use xlink:href="#SVGID_14_"  overflow="visible"/>
				</clipPath>
				<path clip-path="url(#SVGID_15_)" fill="none" stroke="#747BFD" stroke-miterlimit="10" d="M449.468,278.515
					c-5.864-12.795-14.388-24.361-24.868-33.753"/>
			</g>
			<g>
				<defs>
					<path id="SVGID_16_" d="M450.507,214.29c5.763-4.852,12.7-8.166,20.474-8.915c3.768-0.363,7.895,0.075,10.724,2.593
						c7.438,6.624,6.671,22.385,6.541,31.587c-0.311,22.138-5.925,43.97-14.739,64.196c-4.361,10.007-9.521,19.663-15.329,28.904
						c-2.669,4.248-5.504,8.389-8.068,12.697c-1.077,1.81-8.286,13.014-6.918,14.813c-6.284-8.272-9.789-18.386-11.563-28.62
						c-2.625-15.141-5.473-30.741-4.689-46.374c0.803-16.071,3.166-32.172,8.135-47.509
						C437.933,228.819,443.299,220.356,450.507,214.29z"/>
				</defs>
				<clipPath id="SVGID_17_">
					<use xlink:href="#SVGID_16_"  overflow="visible"/>
				</clipPath>
				<path clip-path="url(#SVGID_17_)" fill="none" stroke="#747BFD" stroke-miterlimit="10" d="M443.269,315.022
					c-0.794-3.943-2.21-7.764-4.179-11.271c-2.292-4.083-5.303-7.711-8.367-11.249c-2.208-2.545-4.454-5.062-6.74-7.538"/>
			</g>
		</g>
		<g>
			<g>
				<path id="SVGID_3_" fill="#BCBEF9" d="M418.815,264.112c-4.313-2.461-9.205-3.789-14.337-3.351
					c-2.487,0.212-5.11,0.988-6.646,2.956c-4.037,5.18-1.671,15.309-0.49,21.264c2.829,14.319,9.062,27.812,17.181,39.885
					c4.017,5.973,8.512,11.621,13.376,16.928c2.234,2.436,4.565,4.784,6.741,7.275c0.911,1.045,6.919,7.453,6.247,8.785
					c3.091-6.111,4.163-13.086,4.098-19.936c-0.094-10.133-0.102-20.587-2.466-30.635c-2.429-10.325-5.874-20.486-10.916-29.848
					C428.696,272.044,424.21,267.192,418.815,264.112z"/>
			</g>
			<g>
				<defs>
					<path id="SVGID_18_" d="M418.815,264.112c-4.313-2.461-9.205-3.789-14.337-3.351c-2.487,0.212-5.11,0.988-6.646,2.956
						c-4.037,5.18-1.671,15.309-0.49,21.264c2.829,14.319,9.062,27.812,17.181,39.885c4.017,5.973,8.512,11.621,13.376,16.928
						c2.234,2.436,4.565,4.784,6.741,7.275c0.911,1.045,6.919,7.453,6.247,8.785c3.091-6.111,4.163-13.086,4.098-19.936
						c-0.094-10.133-0.102-20.587-2.466-30.635c-2.429-10.325-5.874-20.486-10.916-29.848
						C428.696,272.044,424.21,267.192,418.815,264.112z"/>
				</defs>
				<clipPath id="SVGID_19_">
					<use xlink:href="#SVGID_18_"  overflow="visible"/>
				</clipPath>
				<path clip-path="url(#SVGID_19_)" fill="none" stroke="#747BFD" stroke-miterlimit="10" d="M442.295,362.907
					c-1.79-17.563-6.496-34.713-12.937-51.118c-6.142-15.649-13.244-31.177-22.238-45.406c-2.974-4.701-6.173-9.264-9.648-13.606"/>
			</g>
			<g>
				<defs>
					<path id="SVGID_20_" d="M418.815,264.112c-4.313-2.461-9.205-3.789-14.337-3.351c-2.487,0.212-5.11,0.988-6.646,2.956
						c-4.037,5.18-1.671,15.309-0.49,21.264c2.829,14.319,9.062,27.812,17.181,39.885c4.017,5.973,8.512,11.621,13.376,16.928
						c2.234,2.436,4.565,4.784,6.741,7.275c0.911,1.045,6.919,7.453,6.247,8.785c3.091-6.111,4.163-13.086,4.098-19.936
						c-0.094-10.133-0.102-20.587-2.466-30.635c-2.429-10.325-5.874-20.486-10.916-29.848
						C428.696,272.044,424.21,267.192,418.815,264.112z"/>
				</defs>
				<clipPath id="SVGID_21_">
					<use xlink:href="#SVGID_20_"  overflow="visible"/>
				</clipPath>
				<path clip-path="url(#SVGID_21_)" fill="none" stroke="#747BFD" stroke-miterlimit="10" d="M388.254,278.547
					c9.075,1.379,17.972,3.944,26.389,7.608c2.138,0.93,3.264,1.123,5.155,2.48"/>
			</g>
			<g>
				<defs>
					<path id="SVGID_22_" d="M418.815,264.112c-4.313-2.461-9.205-3.789-14.337-3.351c-2.487,0.212-5.11,0.988-6.646,2.956
						c-4.037,5.18-1.671,15.309-0.49,21.264c2.829,14.319,9.062,27.812,17.181,39.885c4.017,5.973,8.512,11.621,13.376,16.928
						c2.234,2.436,4.565,4.784,6.741,7.275c0.911,1.045,6.919,7.453,6.247,8.785c3.091-6.111,4.163-13.086,4.098-19.936
						c-0.094-10.133-0.102-20.587-2.466-30.635c-2.429-10.325-5.874-20.486-10.916-29.848
						C428.696,272.044,424.21,267.192,418.815,264.112z"/>
				</defs>
				<clipPath id="SVGID_23_">
					<use xlink:href="#SVGID_22_"  overflow="visible"/>
				</clipPath>
				<path clip-path="url(#SVGID_23_)" fill="none" stroke="#747BFD" stroke-miterlimit="10" d="M427.363,306.378
					c-9.168-3.719-19.105-5.523-28.995-5.271"/>
			</g>
			<g>
				<defs>
					<path id="SVGID_24_" d="M418.815,264.112c-4.313-2.461-9.205-3.789-14.337-3.351c-2.487,0.212-5.11,0.988-6.646,2.956
						c-4.037,5.18-1.671,15.309-0.49,21.264c2.829,14.319,9.062,27.812,17.181,39.885c4.017,5.973,8.512,11.621,13.376,16.928
						c2.234,2.436,4.565,4.784,6.741,7.275c0.911,1.045,6.919,7.453,6.247,8.785c3.091-6.111,4.163-13.086,4.098-19.936
						c-0.094-10.133-0.102-20.587-2.466-30.635c-2.429-10.325-5.874-20.486-10.916-29.848
						C428.696,272.044,424.21,267.192,418.815,264.112z"/>
				</defs>
				<clipPath id="SVGID_25_">
					<use xlink:href="#SVGID_24_"  overflow="visible"/>
				</clipPath>
				<path clip-path="url(#SVGID_25_)" fill="none" stroke="#747BFD" stroke-miterlimit="10" d="M434.844,328.049
					c-8.854-5.134-18.997-8.015-29.229-8.299"/>
			</g>
			<g>
				<defs>
					<path id="SVGID_26_" d="M418.815,264.112c-4.313-2.461-9.205-3.789-14.337-3.351c-2.487,0.212-5.11,0.988-6.646,2.956
						c-4.037,5.18-1.671,15.309-0.49,21.264c2.829,14.319,9.062,27.812,17.181,39.885c4.017,5.973,8.512,11.621,13.376,16.928
						c2.234,2.436,4.565,4.784,6.741,7.275c0.911,1.045,6.919,7.453,6.247,8.785c3.091-6.111,4.163-13.086,4.098-19.936
						c-0.094-10.133-0.102-20.587-2.466-30.635c-2.429-10.325-5.874-20.486-10.916-29.848
						C428.696,272.044,424.21,267.192,418.815,264.112z"/>
				</defs>
				<clipPath id="SVGID_27_">
					<use xlink:href="#SVGID_26_"  overflow="visible"/>
				</clipPath>
				<path clip-path="url(#SVGID_27_)" fill="none" stroke="#747BFD" stroke-miterlimit="10" d="M419.268,288.149
					c-1.151-9.254-0.599-18.718,1.621-27.774"/>
			</g>
			<g>
				<defs>
					<path id="SVGID_28_" d="M418.815,264.112c-4.313-2.461-9.205-3.789-14.337-3.351c-2.487,0.212-5.11,0.988-6.646,2.956
						c-4.037,5.18-1.671,15.309-0.49,21.264c2.829,14.319,9.062,27.812,17.181,39.885c4.017,5.973,8.512,11.621,13.376,16.928
						c2.234,2.436,4.565,4.784,6.741,7.275c0.911,1.045,6.919,7.453,6.247,8.785c3.091-6.111,4.163-13.086,4.098-19.936
						c-0.094-10.133-0.102-20.587-2.466-30.635c-2.429-10.325-5.874-20.486-10.916-29.848
						C428.696,272.044,424.21,267.192,418.815,264.112z"/>
				</defs>
				<clipPath id="SVGID_29_">
					<use xlink:href="#SVGID_28_"  overflow="visible"/>
				</clipPath>
				<path clip-path="url(#SVGID_29_)" fill="none" stroke="#747BFD" stroke-miterlimit="10" d="M427.115,305.646
					c2.283-8.996,6.438-17.509,12.12-24.846"/>
			</g>
			<g>
				<defs>
					<path id="SVGID_30_" d="M418.815,264.112c-4.313-2.461-9.205-3.789-14.337-3.351c-2.487,0.212-5.11,0.988-6.646,2.956
						c-4.037,5.18-1.671,15.309-0.49,21.264c2.829,14.319,9.062,27.812,17.181,39.885c4.017,5.973,8.512,11.621,13.376,16.928
						c2.234,2.436,4.565,4.784,6.741,7.275c0.911,1.045,6.919,7.453,6.247,8.785c3.091-6.111,4.163-13.086,4.098-19.936
						c-0.094-10.133-0.102-20.587-2.466-30.635c-2.429-10.325-5.874-20.486-10.916-29.848
						C428.696,272.044,424.21,267.192,418.815,264.112z"/>
				</defs>
				<clipPath id="SVGID_31_">
					<use xlink:href="#SVGID_30_"  overflow="visible"/>
				</clipPath>
				<path clip-path="url(#SVGID_31_)" fill="none" stroke="#747BFD" stroke-miterlimit="10" d="M435.472,328.585
					c0.045-2.652,0.51-5.297,1.37-7.807c1.003-2.92,2.521-5.631,4.092-8.289c1.129-1.914,2.287-3.811,3.476-5.689"/>
			</g>
		</g>
		<path fill="#F9C03B" d="M463.189,351.169c-8.729,0-35.693,0-43.912,0c0,24.8,7.705,49.603,7.705,49.603h28.504
			C455.486,400.771,463.189,376.077,463.189,351.169z"/>
		<rect x="415.939" y="344.491" fill="#F9C03B" width="50.59" height="6.678"/>
		<path fill="#F9C03B" d="M98.469,386.166H86.935c-2.91,0-5.28-2.369-5.28-5.28v-21.393c0-2.91,2.37-5.279,5.28-5.279h11.534
			c2.91,0,5.279,2.369,5.279,5.279v21.393C103.748,383.797,101.379,386.166,98.469,386.166z M86.935,358.737
			c-0.408,0-0.753,0.346-0.753,0.756v21.393c0,0.41,0.345,0.756,0.753,0.756h11.534c0.409,0,0.755-0.346,0.755-0.756v-21.393
			c0-0.41-0.346-0.756-0.755-0.756H86.935z"/>
		<path fill="#F9C03B" d="M122.105,390.737H97.011c-2.37,0-4.309-1.938-4.309-4.309V352.1c0-2.368,1.938-4.308,4.309-4.308h25.093
			c2.368,0,4.308,1.939,4.308,4.308v34.329C126.411,388.801,124.473,390.737,122.105,390.737z"/>
		<path opacity="0.2" fill="#FFFFFF" enable-background="new    " d="M118.614,380.426h-1.644c-1.58,0-2.872-1.292-2.872-2.872
			v-26.89c0-1.578,1.292-2.871,2.872-2.871h1.644c1.581,0,2.872,1.293,2.872,2.871v26.89
			C121.486,379.134,120.195,380.426,118.614,380.426z"/>
		<path opacity="0.1" fill="#231F20" enable-background="new    " d="M105.17,383.967c-2.031,0-3.694-1.665-3.694-3.694v-32.479
			h-5.079c-2.031,0-3.693,1.663-3.693,3.695v35.556c0,2.032,1.662,3.693,3.693,3.693h26.321c2.033,0,3.694-1.661,3.694-3.693v-3.077
			L105.17,383.967L105.17,383.967z"/>
		<path fill="#0A1E7D" d="M411.011,410.811H310.587c-7.722,0-13.979-4.958-13.979-11.072v-74.8c0-28.08,28.738-50.846,64.191-50.846
			h0.001c35.452,0,64.188,22.766,64.188,50.846v74.8C424.99,405.853,418.733,410.811,411.011,410.811z"/>
		<path opacity="0.2" fill="#231F20" enable-background="new    " d="M403.824,287.207c8.498,8.624,13.575,19.467,13.575,31.254
			v74.801c0,6.115-6.259,11.072-13.978,11.072H302.996c-1.985,0-3.874-0.334-5.587-0.927c1.914,4.309,7.081,7.402,13.178,7.402
			h100.424c7.722,0,13.979-4.958,13.979-11.072v-74.801C424.99,309.968,416.822,296.511,403.824,287.207z"/>
		<polygon fill="#E99D86" points="361.635,290.399 338.691,290.399 335.315,256.585 358.261,256.585 		"/>
		<path fill="#C46623" d="M313.45,390.487L313.45,390.487c-12.039-0.712-18.81-14.168-12.204-24.256l41.718-63.727
			c3.077-4.702,8.438-7.396,14.048-7.066l0,0c12.039,0.709,18.81,14.166,12.203,24.254l-41.718,63.727
			C324.421,388.122,319.062,390.818,313.45,390.487z"/>
		<path fill="#0172D0" d="M208.189,358.716h106.617c8.765,0,15.872,7.105,15.872,15.874l0,0c0,8.763-7.107,15.87-15.872,15.87
			H208.189c-8.765,0-15.872-7.107-15.872-15.87l0,0C192.317,365.821,199.424,358.716,208.189,358.716z"/>
		<circle fill="#747BFD" cx="314.679" cy="235.373" r="15.118"/>
		<path fill="#0172D0" d="M397.948,349.146c0.168,9.672,0.129,19.344,0.029,29.016c-0.051,4.839-0.116,9.679-0.177,14.517
			c-0.063,4.867,0.447,10.174-0.257,14.966c-5.678,0.839-12.056,0.099-17.803,0.099c-9.135,0-18.27,0-27.404,0
			c-14.818,0-29.637,0-44.453,0c-0.071,0-1.454,0-1.454,0c-1.252-0.423,0.006-11.296-0.07-12.752
			c-1.013-19.52-3.75-38.749-2.754-58.361c0.421-8.263,1.389-16.569,4.022-24.413c4.008-11.938,11.802-21.65,23.841-25.966
			c11.419-4.093,24.169-3.906,36.035-2.249c8.934,1.248,16.224,6.988,21.482,14.063c7.833,10.545,7.89,24.813,8.518,37.424
			C397.73,340.034,397.869,344.59,397.948,349.146z"/>
		<path fill="none" stroke="#747BFD" stroke-width="3" stroke-miterlimit="10" d="M337.52,156.833
			c-14.863,0-26.913,11.098-26.913,24.786v43.116"/>
		<path fill="#F7C6B5" d="M347.497,273.458c-5.231,0.197-10.51-0.461-15.433-2.198c-22.837-8.058-25.055-34.526-24.524-54.172
			c0.167-6.185,0.136-12.365,0.509-18.545c0.438-7.283,2.665-14.881,10.514-17.769c2.06-0.757,4.26-0.856,6.339-1.484
			c2.584-0.781,4.924-1.366,7.698-1.366c0,0,23.28,0,23.29,0c8.063,0,15.758,3.859,20.372,10.123
			c4.336,5.885,4.679,13.269,4.646,20.2c-0.023,6.174,0.062,12.355-0.26,18.523c-0.604,11.643-2.502,24.099-9.771,33.838
			c-2.482,3.33-5.572,6.23-9.142,8.514C357.515,271.821,352.577,273.265,347.497,273.458z"/>
		<path fill="#0A1E7D" d="M360.087,160.274c-1.936-0.914-4.022-1.502-6.151-1.708c-2.633-0.256-5.563-0.014-8.111,0.692
			c-0.864,0.241-7.651,2.624-7.417,3.714c-0.82-3.774-4.417-6.512-8.218-7.196c-3.8-0.683-7.722,0.368-11.223,1.995
			c-0.933,0.431-6.704,5.008-5.114,6.309c-1.88-1.54-4.32-2.28-6.743-2.459c-4.33-0.319-10.376,0.592-12.91,4.625
			c-1.162,1.846-1.426,4.132-1.258,6.306c0.33,4.232,2.181,8.232,4.648,11.681c-2.77-1.659-6.69,0.679-7.322,3.847
			c-0.634,3.166,1.313,6.405,3.974,8.233c3.423,2.354,7.786,2.812,11.941,2.857c18.12,0.205,36.511-5.963,54.087-1.536
			c2.604,0.657,4.056,2.325,5.295,4.636c2.596,4.84,4.691,9.93,6.046,15.244c1.678,6.566,4.135,14.256,11.498,16.047
			c1.686,0.411,3.525,0.87,4.835-0.156c1.464-1.147,2.535-4.239,3.288-5.902c1.165-2.57,2.1-5.243,2.837-7.969
			c3.184-11.768,2.933-24.926-1.538-36.332c-2.829-7.22-8.015-15.664-15.65-18.284c-1.766-0.604-4.184-1.334-6.065-1.085
			c-0.629,0.083-3.851,1.875-4.188,1.513C364.863,163.192,362.605,161.458,360.087,160.274z"/>
		<path fill="none" stroke="#747BFD" stroke-width="3" stroke-miterlimit="10" d="M381.16,221.098v-39.463
			c0-13.687-12.048-24.781-26.905-24.781h-16.728"/>
		<g>
			<g>
				<path id="SVGID_5_" fill="#333333" d="M322.347,249.506c0,6.233,5.054,11.288,11.288,11.288l0,0
					c6.232,0,11.289-5.055,11.289-11.288"/>
			</g>
			<g>
				<defs>
					<path id="SVGID_32_" d="M322.347,249.506c0,6.233,5.054,11.288,11.288,11.288l0,0c6.232,0,11.289-5.055,11.289-11.288"/>
				</defs>
				<clipPath id="SVGID_33_">
					<use xlink:href="#SVGID_32_"  overflow="visible"/>
				</clipPath>
				<g clip-path="url(#SVGID_33_)">
					<ellipse fill="#C94958" cx="333.636" cy="258.595" rx="9.464" ry="4.043"/>
				</g>
			</g>
		</g>
		<path fill="#231F20" d="M355.744,226.495c0,3.229-1.777,5.85-3.966,5.85c-2.19,0-3.969-2.619-3.969-5.85
			c0-3.231,1.777-5.852,3.969-5.852C353.967,220.644,355.744,223.265,355.744,226.495z"/>
		<ellipse fill="#231F20" cx="317.56" cy="226.495" rx="3.966" ry="5.85"/>
		<g>
			<path fill="#0A1E7D" d="M349.501,212.425c0,0,0.244-0.126,0.68-0.314c0.218-0.092,0.479-0.209,0.787-0.318
				c0.304-0.119,0.642-0.26,1.06-0.309c0.408-0.076,0.858-0.158,1.344-0.215c0.49-0.094,0.982-0.044,1.508-0.027
				c0.52,0.039,1.072,0.004,1.604,0.156c0.539,0.111,1.084,0.246,1.628,0.381c0.52,0.211,1.038,0.424,1.539,0.65
				c0.521,0.188,0.946,0.542,1.388,0.815c0.432,0.295,0.867,0.546,1.196,0.897c0.353,0.322,0.665,0.646,0.948,0.942
				c0.302,0.276,0.515,0.596,0.7,0.877c0.191,0.272,0.343,0.522,0.468,0.726c0.247,0.407,0.369,0.647,0.369,0.647
				s-0.251-0.131-0.655-0.371c-0.2-0.123-0.445-0.267-0.706-0.444c-0.264-0.177-0.557-0.375-0.905-0.549
				c-0.343-0.181-0.707-0.377-1.072-0.604c-0.354-0.247-0.811-0.369-1.215-0.594c-0.422-0.197-0.841-0.43-1.307-0.572
				c-0.458-0.16-0.912-0.344-1.368-0.523c-0.475-0.123-0.947-0.245-1.412-0.386c-0.46-0.163-0.935-0.216-1.392-0.306
				c-0.455-0.058-0.905-0.228-1.319-0.23c-0.418-0.029-0.82-0.086-1.199-0.139c-0.374-0.065-0.747-0.069-1.073-0.075
				c-0.325-0.004-0.612-0.027-0.849-0.042C349.774,212.464,349.501,212.425,349.501,212.425z"/>
		</g>
		<g>
			<path fill="#0A1E7D" d="M324.286,212.425c0,0-0.271,0.039-0.745,0.075c-0.234,0.015-0.521,0.038-0.848,0.042
				c-0.326,0.006-0.699,0.01-1.073,0.074c-0.38,0.054-0.781,0.109-1.199,0.14c-0.414,0.004-0.864,0.174-1.32,0.229
				c-0.456,0.09-0.931,0.144-1.391,0.306c-0.465,0.142-0.938,0.264-1.412,0.387c-0.456,0.181-0.911,0.363-1.369,0.522
				c-0.466,0.144-0.885,0.375-1.307,0.572c-0.404,0.225-0.859,0.347-1.215,0.594c-0.364,0.227-0.729,0.423-1.071,0.604
				c-0.351,0.174-0.644,0.371-0.905,0.549c-0.261,0.178-0.506,0.321-0.706,0.443c-0.405,0.241-0.655,0.372-0.655,0.372
				s0.122-0.24,0.368-0.647c0.126-0.201,0.276-0.453,0.469-0.727c0.186-0.281,0.397-0.6,0.699-0.877
				c0.283-0.297,0.597-0.62,0.948-0.941c0.33-0.353,0.767-0.604,1.196-0.898c0.441-0.272,0.867-0.627,1.389-0.814
				c0.501-0.228,1.02-0.439,1.539-0.65c0.544-0.135,1.089-0.27,1.628-0.381c0.531-0.153,1.085-0.117,1.604-0.156
				c0.524-0.017,1.018-0.065,1.508,0.027c0.483,0.057,0.936,0.139,1.344,0.215c0.418,0.049,0.755,0.188,1.06,0.309
				c0.308,0.109,0.569,0.229,0.787,0.318C324.041,212.299,324.286,212.425,324.286,212.425z"/>
		</g>
		<ellipse fill="#E99D86" cx="333.634" cy="237.15" rx="3.887" ry="3.577"/>
		<path fill="none" stroke="#747BFD" stroke-width="3" stroke-miterlimit="10" d="M376.898,245.276
			c-5.095,16.205-21.637,22.027-33.184,19.916"/>
		<circle fill="#747BFD" cx="343.707" cy="265.192" r="5.117"/>
		<circle fill="#747BFD" cx="381.196" cy="235.373" r="15.732"/>
		<circle fill="#95A6EF" cx="381.196" cy="235.373" r="9.439"/>
		<path fill="#005FA0" d="M378.613,390.999c21.42-9.727,20.963-36.717,20.276-56.655c-0.356-10.33-0.329-21.713-4.648-31.276
			c-2.815-6.238-8.24-10.959-15.476-9.567c-11.327,2.18-13.368,18.155-14.38,26.83c-1.09,9.348-0.567,18.812-1.772,28.146
			c-0.521,4.018-1.566,8.342-4.938,10.918c-2.644,2.021-6.22,2.566-9.62,2.954c-7.723,0.88-15.503,1.308-23.284,1.282
			c-11.087-0.038-22.531-0.949-32.956,2.55c-0.865,0.291-1.759,0.636-2.353,1.286c-0.867,0.948-0.908,2.307-0.904,3.547
			c0.01,3.434,0.019,6.867,0.028,10.301c0.005,1.903,0.043,3.921,1.131,5.537c0.939,1.396,2.538,2.293,4.144,3.004
			c7.719,3.428,16.564,3.72,25.122,3.947c10.604,0.285,21.207,0.567,31.81,0.852c8.994,0.24,19.171,0.14,27.472-3.496
			C378.38,391.104,378.494,391.053,378.613,390.999z"/>
		<path fill="#F7C6B5" d="M284.053,357.485c7.674,0.346,13.705,4.658,19.363,9.451c2.305,1.951,4.302,4.479,4.805,7.457
			c0.603,3.561-0.669,7.449-4.514,7.789c-4.879,0.433-9.639,0.099-13.932-2.406c-3.339-1.946-6.096-5.395-10.162-5.813
			c-3.234-0.333-6.24,1.492-9.303,2.593c-2.813,1.012-5.839,1.43-8.821,1.221c-0.864-0.061-1.777-0.194-2.44-0.752
			c-2.719-2.278,3.737-9.992,5.461-11.6c1.815-1.697,3.92-3.059,6.104-4.242C274.749,358.94,279.355,357.274,284.053,357.485z"/>
		<path fill="#95A6EF" d="M53.727,410.811h428.594c4.957,0,8.979-4.021,8.979-8.979v-2.394c0-4.959-4.021-8.979-8.979-8.979H53.727
			c-4.959,0-8.978,4.02-8.978,8.979v2.394C44.749,406.79,48.768,410.811,53.727,410.811z"/>
		<path fill="#F4B395" d="M190.286,377.392c0-10.24,8.301-18.541,18.542-18.541c10.24,0,18.543,8.301,18.543,18.541"/>
		<path fill="#747BFD" d="M324.715,376.112h-67.559c-3.172,0-5.743,2.572-5.743,5.744v2.856c0,3.174,2.571,5.746,5.743,5.746h67.559
			c3.172,0,5.743-2.572,5.743-5.746v-2.856C330.459,378.687,327.887,376.112,324.715,376.112z"/>
		<path fill="#747BFD" d="M263.99,377.504l-18.493-94.156c-0.487-2.487-2.67-4.28-5.202-4.28h-122.95
			c-1.781,0-3.304,0.881-4.26,2.187l-0.018-0.015l-5.677,6.711l5.037-1.104l18.21,92.705c0.488,2.485,2.667,4.279,5.202,4.279
			h122.948C262.126,383.829,264.633,380.78,263.99,377.504z"/>
		<path fill="#BCBEF9" d="M130.218,390.46h122.946c3.342,0,5.849-3.049,5.205-6.325l-18.495-94.155
			c-0.488-2.488-2.67-4.281-5.203-4.281H111.722c-3.339,0-5.848,3.05-5.204,6.324l18.494,94.157
			C125.502,388.666,127.682,390.46,130.218,390.46z"/>
		<polygon fill="#747BFD" points="169.498,328.843 192.475,328.843 194.395,342.666 172.011,342.666 		"/>
		<path fill="#3F91AC" d="M106.417,290.078"/>
		<g opacity="0.2">
			<g>
				<path fill="#FFFFFF" d="M160.523,295.772c23.616,0,47.232,0,70.849,0c3.225,0,3.225-5,0-5c-23.616,0-47.232,0-70.849,0
					C157.299,290.772,157.299,295.772,160.523,295.772L160.523,295.772z"/>
			</g>
		</g>
	</g>
</g>
<path fill="#BCBEF9" d="M129.615,123.507c1.712-2.483,2.719-5.488,2.719-8.732c0-8.508-6.896-15.405-15.405-15.405
	c-8.508,0-15.405,6.897-15.405,15.405c0,8.507,6.896,15.405,15.405,15.405c1.682,0,3.297-0.279,4.813-0.777
	c3.537,1.053,8.254,3.115,8.254,3.115C129.41,128.554,129.451,125.502,129.615,123.507z M111.428,117.663
	c-0.95,0-1.719-0.77-1.719-1.72c0-0.949,0.769-1.719,1.719-1.719s1.719,0.771,1.719,1.719
	C113.147,116.893,112.378,117.663,111.428,117.663z M116.93,117.663c-0.95,0-1.719-0.77-1.719-1.72c0-0.949,0.769-1.719,1.719-1.719
	s1.719,0.771,1.719,1.719C118.649,116.893,117.88,117.663,116.93,117.663z M122.432,117.663c-0.95,0-1.719-0.77-1.719-1.72
	c0-0.949,0.769-1.719,1.719-1.719s1.719,0.771,1.719,1.719C124.151,116.893,123.382,117.663,122.432,117.663z"/>
<path fill="#0172D0" d="M54.351,203.692c-1.691-2.733-2.69-5.737-3.126-8.91c-0.879-6.413,0.48-12.336,4.222-17.625
	c4.092-5.781,9.685-9.276,16.72-10.234c12.898-1.757,24.752,6.665,27.404,19.396c1.021,4.895,0.561,9.684-1.349,14.297
	c-0.595,1.438-1.38,2.809-2.182,4.148c-6.725,11.225-13.473,22.434-20.213,33.649c-0.097,0.159-0.2,0.319-0.323,0.516
	c-0.11-0.172-0.194-0.294-0.271-0.422c-1.538-2.519-3.078-5.037-4.606-7.563L54.351,203.692z M75.542,178.012
	c-5.75-0.017-10.466,4.686-10.484,10.451c-0.018,5.797,4.659,10.513,10.44,10.531c5.77,0.018,10.478-4.658,10.499-10.427
	C86.021,182.743,81.351,178.029,75.542,178.012z"/>
</svg>
